<svg preserveAspectRatio="none" width="100%" height="100%" overflow="visible" style="display: block;" viewBox="0 0 382 115.419" fill="none" xmlns="http://www.w3.org/2000/svg">
<g id="OGeiqefXPhFkxZIHhWBiSlU4wdg.svg" clip-path="url(#clip0_0_81)">
<path id="Vector" d="M92.2333 87.1228V4.83643H105.786V39.3244H145.719V4.83643H159.272V87.1228H145.719V50.3361H105.786V87.1228H92.2333ZM174.543 115.318C171.76 115.318 168.856 114.592 167.404 114.108V104.185H170.913C178.294 104.185 181.078 102.733 186.644 89.3009L188.58 84.8241L162.684 22.6244H176.6L192.573 62.7999L195.357 71.6336L198.14 62.7999L213.629 22.6251H226.819L197.535 94.6258C191.001 110.72 186.039 115.318 174.543 115.318ZM249.962 88.6962C232.9 88.6962 222.614 75.9904 222.614 54.9343C222.614 33.0322 233.142 20.9311 249.962 20.9311C257.344 20.9311 263.394 23.9565 267.509 29.8854V-0.00372319H280.457V87.1228H267.509V79.2572C263.394 85.3081 257.344 88.6962 249.962 88.6962ZM251.656 77.8051C261.942 77.8051 267.509 69.8189 267.509 54.9343C267.509 40.1711 261.7 31.8222 251.656 31.8222C241.37 31.8222 235.804 40.0504 235.804 54.9343C235.804 69.5769 241.612 77.8051 251.656 77.8051ZM286.393 87.1228V22.6251H299.341V32.1848C303.576 24.4406 310.232 20.9311 317.734 20.9311C320.275 20.9311 322.695 21.5357 323.905 22.6251V34.0002C321.969 33.3948 319.67 33.1528 317.008 33.1528C304.665 33.1528 299.341 40.6551 299.341 51.9095V87.1228H286.393ZM337.943 43.6805H324.994C327.052 29.4013 336.853 20.9311 352.947 20.9311C370.494 20.9311 379.207 31.2168 379.207 46.222V71.3916C379.207 79.1365 379.933 83.6133 381.385 87.1228H367.832C366.864 84.7027 366.5 81.3146 366.38 77.6845C360.934 85.3081 352.584 88.6962 344.84 88.6962C331.771 88.6962 322.816 82.5247 322.816 70.1815C322.816 61.3479 327.657 54.8136 337.337 51.5462C345.929 48.6421 354.642 47.916 366.258 47.7947V46.3426C366.258 36.9043 361.902 31.8222 351.979 31.8222C343.629 31.8222 339.153 36.4203 337.943 43.6805ZM335.885 69.6982C335.885 75.143 340.363 78.5312 347.26 78.5312C358.03 78.5312 366.258 69.9395 366.258 59.5332V56.6291C341.451 56.8703 335.885 62.3166 335.885 69.6982ZM43.3313 88.2204C37.4531 88.2204 31.9234 87.1377 26.7407 84.9723C21.5588 82.7294 16.9956 79.6355 13.0505 75.6911C9.10694 71.746 6.01222 67.1828 3.76936 62.0009C1.60395 56.8182 0.521248 51.2885 0.521248 45.4103C0.521248 39.4547 1.60395 33.9243 3.76936 28.8198C6.01222 23.6371 9.10619 19.0747 13.0505 15.1296C16.9956 11.1852 21.5588 8.12997 26.7407 5.96456C31.9234 3.72171 37.4531 2.60028 43.3313 2.60028C49.2869 2.60028 54.8174 3.72171 59.9219 5.96456C65.1046 8.12997 69.667 11.1845 73.6121 15.1296C77.5564 19.0747 80.6117 23.6378 82.7771 28.8198C85.02 33.9243 86.1414 39.4547 86.1414 45.4103C86.1414 51.2885 85.02 56.8182 82.7771 62.0009C80.6117 67.1828 77.5564 71.746 73.6121 75.6911C69.667 79.6355 65.1038 82.7294 59.9219 84.9723C54.8174 87.1377 49.2869 88.2204 43.3313 88.2204ZM43.3313 78.0114C47.7396 78.0114 51.8783 77.1603 55.7452 75.4588C59.6896 73.7573 63.132 71.437 66.0711 68.4979C69.0746 65.5005 71.4768 61.9561 73.1482 58.0558C74.8497 54.1114 75.7 49.8961 75.7 45.4103C75.7 40.8472 74.8497 36.5931 73.1482 32.648C71.4459 28.7036 69.0869 25.2619 66.0704 22.3228C63.1313 19.3837 59.6896 17.0634 55.7452 15.3619C51.8783 13.6604 47.7403 12.8093 43.3321 12.8093C38.923 12.8093 34.7464 13.6604 30.8013 15.3619C26.968 17.0407 23.47 19.3989 20.4761 22.3228C17.537 25.2619 15.2167 28.7044 13.5152 32.648C11.8137 36.5931 10.9626 40.8464 10.9626 45.4103C10.9626 49.8961 11.8137 54.1114 13.5152 58.0558C15.2167 62.0009 17.5363 65.4813 20.4761 68.4979C23.47 71.4217 26.968 73.78 30.8013 75.4588C34.7464 77.1603 38.923 78.0114 43.3313 78.0114ZM43.7952 69.1941C39.3095 69.1941 35.3264 68.1889 31.846 66.1776C28.3648 64.1671 25.6193 61.3821 23.608 57.8242C21.675 54.1889 20.7077 50.013 20.7077 45.2942C20.7077 40.6536 21.675 36.5543 23.608 32.9965C25.6193 29.4386 28.3655 26.6544 31.846 24.6431C35.3264 22.6326 39.3095 21.6273 43.7952 21.6273C47.7403 21.6273 51.2595 22.4002 54.3527 23.9469C57.4467 25.4942 59.9599 27.6596 61.8944 30.4438C63.8275 33.1513 64.9489 36.2833 65.2587 39.8412L53.8888 40.422C53.5016 37.6371 52.3809 35.3942 50.5245 33.6927C48.7448 31.9912 46.5027 31.1401 43.7952 31.1401C41.4749 31.1401 39.4257 31.7209 37.6467 32.8803C35.867 34.0404 34.4753 35.7032 33.4693 37.8694C32.5415 39.9573 32.0776 42.4325 32.0776 45.2942C32.0776 48.2333 32.5415 50.7859 33.4701 52.9513C34.4753 55.04 35.8678 56.7028 37.6467 57.9404C39.4257 59.1005 41.4749 59.6806 43.7952 59.6806C45.6516 59.6806 47.3144 59.2934 48.7843 58.5205C50.3309 57.6693 51.5693 56.5099 52.4971 55.04C53.4249 53.5701 54.005 51.7912 54.2373 49.7032L65.6065 50.2833C65.2974 53.9186 64.1373 57.1667 62.126 60.0284C60.1929 62.89 57.6403 65.1329 54.4689 66.7577C51.2982 68.381 47.7403 69.1941 43.7952 69.1941Z" fill="var(--fill-0, #E1FCAD)"/>
</g>
<defs>
<clipPath id="clip0_0_81">
<rect width="382" height="115.419" fill="white"/>
</clipPath>
</defs>
</svg>
