<svg preserveAspectRatio="none" width="100%" height="100%" overflow="visible" style="display: block;" viewBox="0 0 75 75" fill="none" xmlns="http://www.w3.org/2000/svg">
<g id="Illustration SVG">
<path id="Path 1" d="M25.8254 58.2127L18.9847 61.9385L29.2488 67.9258L39.5135 62.08L34.8012 59.4472" stroke="var(--stroke-0, #595959)" stroke-width="1.06149" stroke-linecap="round" stroke-linejoin="round"/>
<path id="Path 2" d="M25.8248 47.495V61.9089L29.3613 63.9544M29.3613 63.9544L32.68 61.9089V55.7214M29.3613 63.9544L29.2863 50.3806M46.6234 50.1726L53.3813 54.1071L63.6454 48.2686L58.9403 45.6357" stroke="var(--stroke-0, #595959)" stroke-width="1.06149" stroke-linecap="round" stroke-linejoin="round"/>
<path id="Path 3" d="M50.2415 48.2613L53.4859 50.1429M53.4859 50.1429L56.8125 48.0901V44.0891M53.4859 50.1429L53.4641 46.0821M8.06129 32.6946L8.65343 40.2363L20.5881 47.9044L25.0234 46.826M72.3369 34.8067L36.3817 56.2863L2.58448 28.128L39.5734 7.0131L72.3363 34.8073M65.7883 29.2512L29.6238 50.6564M59.2319 23.6879L22.8587 45.026M52.6772 18.1325L16.1002 39.395M46.1286 12.5685L9.34234 33.7585M9.97923 23.9038L43.5738 51.995M17.3813 19.6863L50.7665 47.6964M24.776 15.4621L57.9587 43.3972M32.1786 11.2379L65.1442 39.1058" stroke="var(--stroke-0, #595959)" stroke-width="1.06149" stroke-linecap="round" stroke-linejoin="round"/>
</g>
</svg>
