<svg preserveAspectRatio="none" width="100%" height="100%" overflow="visible" style="display: block;" viewBox="0 0 73.8095 75" fill="none" xmlns="http://www.w3.org/2000/svg">
<g id="Illustration SVG">
<path id="Path 1" d="M33.622 62.503L34.728 32.5131M38.8351 27.7298L40.103 62.4661M40.7887 24.0089C41.8798 24.9298 42.7131 26.4155 42.2411 27.1577C41.769 27.9006 40.206 28.0119 38.9083 27.3583M38.2821 25.5315C38.42 25.1063 38.6404 24.7124 38.931 24.3726M38.975 24.7292V2.32976L40.2512 2.52976C40.6259 2.60658 40.9646 2.80544 41.2143 3.09524C41.4655 3.38512 41.6137 3.75 41.6369 4.13452L43.5024 14.4429C43.7253 16.2533 43.4206 18.0895 42.625 19.731L40.7595 24.0089" stroke="var(--stroke-0, #595959)" stroke-width="1.04464" stroke-linecap="round" stroke-linejoin="round"/>
<path id="Path 2" d="M41.8804 24.9298L57.2679 26.3113L55.9262 27.9006C55.3153 28.7115 54.4466 29.2904 53.4631 29.5423L44.0405 31.1762C43.4332 31.3215 42.7947 31.2595 42.2268 31C41.6572 30.7397 41.1903 30.2974 40.8994 29.7429L39.8744 27.9006M38.6726 27.2768L22.3333 47.753L22.3929 45.9554C22.473 44.8131 22.8461 43.7109 23.4762 42.7548L31.0494 30.7679C32.0173 29.1522 33.3963 27.8221 35.0458 26.9131L38.9905 24.9298M38.9232 21.4542L30.356 18L25.475 20.3321L25.3935 24.3869L31.0417 27.4024M27.8708 21.5357L36.697 25.8512M39.9185 57.4083C39.9185 58.3512 38.6429 59.094 37.0577 59.094C36.7452 59.0834 36.4343 59.0436 36.1292 58.975M31.1369 36.9613C31.6387 36.7607 32.081 36.531 32.5452 36.3006M39.528 35.744C39.9411 35.8774 40.3613 36.0333 40.8036 36.2042M43.2738 37.2065C44.1673 37.4637 45.094 37.5863 46.0238 37.5708C46.6039 37.5733 47.1832 37.5285 47.756 37.4369M20.2399 40.772C20.7094 40.8484 21.1708 40.9677 21.6185 41.1286M26.5 42.8512C26.8917 42.8887 27.2857 42.906 27.6792 42.9036C29.2425 42.9463 30.7893 42.5746 32.1625 41.8262M39.4542 40.9649C41.5702 41.5518 42.4036 42.7625 45.478 42.8958M48.2875 42.6732C48.494 42.6286 48.6929 42.569 48.8774 42.5095M51.4357 41.3881C52.088 41.0907 52.7776 40.8835 53.4857 40.772M7.63095 48.1095C8.19643 48.1988 8.76905 48.2405 9.34167 48.2357C11.025 48.2685 12.6863 47.8429 14.1488 47.003M17.6298 46.0077H18.5149C18.9952 46.006 19.475 46.0333 19.9524 46.0893" stroke="var(--stroke-0, #595959)" stroke-width="1.04464" stroke-linecap="round" stroke-linejoin="round"/>
<path id="Path 3" d="M22.7321 46.9286C24.2312 47.8071 25.9418 48.2591 27.6792 48.2357C28.6524 48.2569 29.6229 48.1243 30.5548 47.8429M41.4673 47.122C41.7179 47.2482 41.9613 47.3667 42.2048 47.4851M44.7482 48.1768C45.1315 48.1768 45.5518 48.2363 46.0238 48.2363C48.8845 48.2363 49.9607 47.3595 51.4798 46.6988M54.7381 45.9857H55.1958C56.4818 45.9503 57.7593 46.2041 58.9339 46.7286M61.1095 47.7012C61.3452 47.7905 61.5964 47.872 61.847 47.9464M64.6339 48.2357C65.128 48.2292 65.6208 48.1869 66.1083 48.1095M1.89524 51.4446C4.84405 51.9196 5.41905 53.5756 9.34167 53.5756H9.82143M12.8881 52.9298C13.2364 52.7776 13.5807 52.6166 13.9208 52.447M16.6417 51.4667C17.2599 51.3583 17.8867 51.3061 18.5143 51.3107C19.5143 51.2881 20.5101 51.431 21.4637 51.7333M23.8673 52.8107C25.0655 53.3464 26.369 53.6 27.6792 53.5536C28.3667 53.5581 29.0531 53.4959 29.7286 53.3679M39.7048 51.7042C40.5338 52.0065 41.3418 52.3639 42.1232 52.7738M44.6964 53.5018C45.1369 53.5518 45.5798 53.5762 46.0238 53.5762C47.659 53.6194 49.2751 53.2161 50.6982 52.4095M53.825 51.3929C54.2871 51.3365 54.7523 51.3091 55.2179 51.3107C56.7341 51.2686 58.2355 51.6192 59.5762 52.3286M61.7952 53.2643C62.0464 53.331 62.3119 53.3905 62.6065 53.4429M66.2631 53.4202C68.6006 52.9964 69.4339 51.831 71.8375 51.444M11.0601 58.775C13.3679 58.4036 14.2232 57.2893 16.3762 56.8512M19.9524 56.7321C22.1643 57.0149 23.0488 57.9131 24.6786 58.4631M26.9125 58.8869H27.65M31.1071 58.3512L31.631 58.1214M40.0369 57.0744C41.8232 58.2307 43.8964 58.866 46.0238 58.9089C46.7417 58.9149 47.4583 58.8452 48.1619 58.7006M51.1333 57.5196C51.4436 57.3727 51.761 57.2416 52.0845 57.1268M54.7381 56.6506H55.1958C59.1256 56.6506 59.7006 58.3071 62.6649 58.7821M16.8036 62.1095C17.3696 62.0208 17.9417 61.9786 18.5143 61.9833C19.4929 61.9642 20.4684 62.0996 21.4048 62.3845M24.7077 63.8107C25.1875 63.9702 25.6815 64.0845 26.1821 64.1524M28.4018 64.2262C32.0881 64.0107 32.4863 62.206 36.1435 61.9982M39.0042 62.1911C39.4304 62.2791 39.8476 62.406 40.2506 62.5702M42.4702 63.5946C43.5972 64.0538 44.8073 64.2739 46.0238 64.2411C46.7923 64.2512 47.5595 64.1714 48.3095 64.0036M50.9494 62.9488C52.2604 62.2723 53.7218 61.9401 55.1964 61.9833C55.7762 61.9804 56.356 62.025 56.9286 62.1167M29.4119 69.4476C30.5836 69.2128 31.7109 68.7942 32.7518 68.2071M35.7161 67.3679C36.0982 67.3298 36.4821 67.3125 36.8661 67.3161C40.7964 67.3161 41.3637 68.972 44.328 69.4476M38.5845 72.7827C38.0165 72.6917 37.442 72.647 36.8667 72.6488C36.2961 72.6463 35.7263 72.6911 35.1631 72.7827" stroke="var(--stroke-0, #595959)" stroke-width="1.04464" stroke-linecap="round" stroke-linejoin="round"/>
</g>
</svg>
