<svg preserveAspectRatio="none" width="100%" height="100%" overflow="visible" style="display: block;" viewBox="0 0 75 75" fill="none" xmlns="http://www.w3.org/2000/svg">
<g id="Illustration SVG">
<path id="Path 1" d="M41.475 19.1478C41.8962 18.6606 42.333 18.1871 42.7848 17.7282M46.251 14.7924C46.7754 14.421 47.307 14.0496 47.853 13.767C51.8508 11.478 55.4598 11.307 58.035 12.8754C60.6102 14.4432 62.0328 17.5056 62.0328 21.8976C62.0239 22.8928 61.9463 23.8861 61.8006 24.8706C64.5558 23.295 67.041 23.169 68.8302 24.2538C70.6194 25.3392 71.5926 27.45 71.5926 30.4896C71.5926 36.6876 67.206 44.2242 61.8006 47.3232L24.1962 68.877C21.3666 70.497 18.8136 70.6236 16.9866 69.5088C15.1602 68.394 14.157 66.231 14.157 63.1242C14.157 56.7624 18.6486 49.0032 24.1962 45.8592C24.7729 45.5289 25.3764 45.2479 26.0004 45.0192V44.7072C26.0004 40.1592 29.2122 34.629 33.1872 32.355C33.6629 32.0808 34.1645 31.8543 34.6848 31.6788C35.3727 29.2915 36.3349 26.992 37.5522 24.8262M68.8302 24.2688L64.2936 21.504" stroke="var(--stroke-0, #595959)" stroke-width="1.053" stroke-linecap="round" stroke-linejoin="round"/>
<path id="Path 2" d="M59.5776 29.7312C59.3707 30.3086 59.1385 30.8765 58.8816 31.4334M56.6352 35.3052C55.7904 36.4968 54.8244 37.5977 53.7528 38.5902M49.7778 41.3478L40.5918 46.647M36.8334 48.765L33.2994 50.7942M29.6316 52.8978L23.6946 56.3088M19.9812 58.4268L18.8958 59.0436M16.9866 69.5232L6.102 62.8788C4.35 61.8162 3.2724 59.6088 3.2724 56.4948C3.2724 50.1402 7.764 42.3738 13.3116 39.2298C13.8869 38.899 14.4907 38.6204 15.1158 38.3976V38.0778C15.1158 33.5298 18.3276 27.9996 22.2954 25.7256C22.7703 25.4522 23.2719 25.2281 23.7924 25.0566C25.851 17.8176 30.9798 10.5786 36.9912 7.1298C40.959 4.8336 44.5752 4.6626 47.1654 6.2382L58.05 12.8754" stroke="var(--stroke-0, #595959)" stroke-width="1.053" stroke-linecap="round" stroke-linejoin="round"/>
<path id="Path 3" d="M13.9548 61.8834L13.311 62.2476C13.0938 62.3736 12.8766 62.4924 12.6522 62.604M26.0004 45.0342L17.0616 39.579M34.6476 31.6932L25.9254 26.3796" stroke="var(--stroke-0, #595959)" stroke-width="1.053" stroke-linecap="round" stroke-linejoin="round"/>
</g>
</svg>
