<svg preserveAspectRatio="none" width="100%" height="100%" overflow="visible" style="display: block;" viewBox="0 0 75 74.3534" fill="none" xmlns="http://www.w3.org/2000/svg">
<g id="Illustration SVG">
<path id="Path 1" d="M7.00022 21.7086L37.4625 39.1552L70.4463 20.261L37.4625 1.36616L4.47866 20.261" stroke="var(--stroke-0, #595959)" stroke-width="1.1347" stroke-linecap="round" stroke-linejoin="round"/>
<path id="Path 2" d="M37.4625 47.8642L4.47866 28.9694V20.2603M37.4625 47.8642L70.4463 28.97V20.261M37.4625 47.8642V39.1552M8.25 28.4127V25.3093M10.8543 29.905V26.8015M13.458 31.3901V28.2931M16.07 32.8823V29.786" stroke="var(--stroke-0, #595959)" stroke-width="1.1347" stroke-linecap="round" stroke-linejoin="round"/>
<path id="Path 3" d="M42.0724 39.4823C42.7384 39.0957 43.2841 39.408 43.2841 40.1722C43.2619 40.5903 43.1407 40.9972 42.9304 41.3593C42.7192 41.7224 42.4252 42.0306 42.0724 42.2586C41.3987 42.6446 40.8601 42.333 40.8601 41.5681M46.3519 37.0248C47.0256 36.6459 47.5642 36.9575 47.5642 37.7224C47.5419 38.1406 47.4204 38.5475 47.2099 38.9095C46.9987 39.2724 46.7047 39.5803 46.3519 39.8082C45.686 40.1871 45.1397 39.8754 45.1397 39.1106M50.6399 34.575C51.3129 34.189 51.8522 34.5006 51.8522 35.2655C51.8303 35.6837 51.709 36.0906 51.4985 36.4526C51.2873 36.8158 50.9931 37.1238 50.6399 37.3513C49.9739 37.7373 49.4276 37.4256 49.4276 36.653M56.978 31.7909V32.5183M59.5966 30.2909V31.0183M62.2157 28.7909V29.519M64.8343 27.2909V28.019M67.4535 25.7922V26.5196" stroke="var(--stroke-0, #595959)" stroke-width="1.1347" stroke-linecap="round" stroke-linejoin="round"/>
<path id="Path 4" d="M7.04547 34.2407L37.4625 51.6653L70.4463 32.7705L69.4888 32.2209M7.79353 30.8703L4.47866 32.7711V41.4718L37.4625 60.3666M8.25 40.9151V37.8116M10.8543 42.4073V39.3039M13.458 43.8996V40.7961M16.07 45.3918V42.2884" stroke="var(--stroke-0, #595959)" stroke-width="1.1347" stroke-linecap="round" stroke-linejoin="round"/>
<path id="Path 5" d="M70.4463 32.7705V41.4718L37.4625 60.3666V51.6653" stroke="var(--stroke-0, #595959)" stroke-width="1.1347" stroke-linecap="round" stroke-linejoin="round"/>
<path id="Path 6" d="M42.0724 51.9698C42.7384 51.5909 43.2841 51.8955 43.2841 52.6681C43.2599 53.0856 43.1379 53.4916 42.9278 53.8532C42.7169 54.2161 42.4239 54.5246 42.0724 54.7539C41.3987 55.1328 40.8601 54.8205 40.8601 54.0556M46.3519 49.5343C47.0256 49.1483 47.5642 49.4606 47.5642 50.2248C47.5424 50.6432 47.4212 51.0503 47.2106 51.4125C46.9994 51.7757 46.7051 52.0837 46.3519 52.3112C45.686 52.6972 45.1397 52.3856 45.1397 51.6129M50.6399 47.0774C51.3129 46.6914 51.8522 47.003 51.8522 47.7756C51.8302 48.1926 51.709 48.5982 51.4985 48.9588C51.2873 49.321 50.993 49.6277 50.6399 49.8537C49.9739 50.2397 49.4276 49.928 49.4276 49.1631M56.978 44.2933V45.0207M59.5966 42.7933V43.5207M62.2157 41.294V42.0213M64.8343 39.794V40.5213M67.4535 38.294V39.022" stroke="var(--stroke-0, #595959)" stroke-width="1.1347" stroke-linecap="round" stroke-linejoin="round"/>
<path id="Path 7" d="M7.04547 46.7431L37.4625 64.1677L70.4463 45.2735L69.5114 44.7388M7.79353 43.3726L4.47866 45.2735V53.9819L37.4625 72.8767M8.25 53.4181V50.3211M10.8543 54.9097V51.814M13.458 56.4019V53.3062M16.07 57.8942V54.7985" stroke="var(--stroke-0, #595959)" stroke-width="1.1347" stroke-linecap="round" stroke-linejoin="round"/>
<path id="Path 8" d="M70.4463 45.2728V53.9819L37.4625 72.8767V64.1677" stroke="var(--stroke-0, #595959)" stroke-width="1.1347" stroke-linecap="round" stroke-linejoin="round"/>
<path id="Path 9" d="M42.0724 64.4942C42.7384 64.1082 43.2841 64.4205 43.2841 65.1847C43.2606 65.6027 43.1388 66.0092 42.9285 66.3711C42.7175 66.734 42.4243 67.0423 42.0724 67.2711C41.3987 67.6571 40.8601 67.3455 40.8601 66.5735M46.3519 62.0366C47.0256 61.6506 47.5642 61.9629 47.5642 62.7349C47.5425 63.1523 47.4212 63.5584 47.2106 63.9194C46.9992 64.2813 46.705 64.5878 46.3519 64.8136C45.686 65.1996 45.1397 64.8879 45.1397 64.1231M50.6399 59.5797C51.3129 59.2009 51.8522 59.5131 51.8522 60.278C51.8297 60.696 51.7082 61.1026 51.4978 61.4644C51.2867 61.8276 50.9927 62.1358 50.6399 62.3638C49.9739 62.7427 49.4276 62.4304 49.4276 61.6655M56.978 56.8028V57.5302M59.5966 55.3034V56.0308M62.2157 53.8034V54.5315M64.8343 52.3041V53.0315M67.4535 50.7963V51.5244" stroke="var(--stroke-0, #595959)" stroke-width="1.1347" stroke-linecap="round" stroke-linejoin="round"/>
</g>
</svg>
