<svg preserveAspectRatio="none" width="100%" height="100%" overflow="visible" style="display: block;" viewBox="0 0 69.125 21" fill="none" xmlns="http://www.w3.org/2000/svg">
<g id="1UqhLqdyhQVNJZSugi6SZJf43k.svg" clip-path="url(#clip0_0_61)">
<path id="Vector" d="M16.8509 15.54V0.863625H19.2685V7.01488H26.391V0.863625H28.8078V15.54H26.391V8.9775H19.2685V15.5391L16.8509 15.54ZM31.7478 20.5686C31.2508 20.5686 30.7328 20.4391 30.4738 20.3525V18.5833H31.1003C32.4163 18.5833 32.9133 18.3243 33.9055 15.9285L34.2512 15.1296L29.632 4.03637H32.1144L34.9634 11.2018L35.4595 12.7768L35.9565 11.2018L38.7189 4.0355H41.0718L35.848 16.8779C34.6825 19.7479 33.7979 20.5686 31.7478 20.5686ZM45.4153 15.82C42.372 15.82 40.5372 13.5538 40.5372 9.79913C40.5372 5.89225 42.4149 3.73363 45.4153 3.73363C46.7313 3.73363 47.811 4.2735 48.5443 5.33137V0H50.8543V15.54H48.5443V14.1365C47.811 15.2163 46.7313 15.82 45.4153 15.82ZM45.7172 13.8775C47.552 13.8775 48.5443 12.4539 48.5443 9.79913C48.5443 7.16538 47.5083 5.67612 45.718 5.67612C43.8823 5.67612 42.89 7.14438 42.89 9.79913C42.89 12.4101 43.926 13.8784 45.7172 13.8784V13.8775ZM52.1283 15.54V4.03637H54.4383V5.74C55.1934 4.35925 56.3808 3.73275 57.7187 3.73275C58.1719 3.73275 58.6033 3.84125 58.8194 4.0355V6.06375C58.4738 5.95612 58.0643 5.91325 57.5892 5.91325C55.3877 5.91325 54.4383 7.25113 54.4383 9.25838V15.5391L52.1283 15.54ZM61.3228 7.79187H59.0128C59.3803 5.24475 61.1285 3.73363 63.9994 3.73363C67.1293 3.73363 68.6833 5.5685 68.6833 8.24513V12.7339C68.6833 14.1155 68.8119 14.9135 69.0718 15.54H66.6542C66.4809 15.1078 66.4162 14.504 66.3952 13.8565C65.4239 15.2163 63.9347 15.8209 62.5539 15.8209C60.222 15.8209 58.6252 14.7201 58.6252 12.5186C58.6252 10.9428 59.4888 9.77725 61.2152 9.19362C62.7473 8.6765 64.3013 8.54613 66.3733 8.52513V8.26612C66.3733 6.58262 65.5963 5.67612 63.827 5.67612C62.3378 5.67612 61.5389 6.49687 61.3228 7.79187ZM60.9553 12.432C60.9553 13.4033 61.7542 14.007 62.9853 14.007C63.431 14.0098 63.8728 13.9241 64.2851 13.7548C64.6974 13.5855 65.072 13.3361 65.3872 13.0209C65.7023 12.7057 65.9518 12.3311 66.1211 11.9188C66.2903 11.5065 66.3761 11.0647 66.3733 10.619V10.101C61.9493 10.1447 60.9553 11.116 60.9553 12.432ZM7.64591 15.7885C6.59591 15.7885 5.60803 15.5951 4.68316 15.2084C3.76999 14.8165 2.93994 14.254 2.23753 13.5511C1.53466 12.8487 0.972202 12.0187 0.580283 11.1055C0.19087 10.1666 -0.00639049 9.15918 0.000157846 8.14275C0.000157846 7.07962 0.192658 6.09175 0.580283 5.18C0.97228 4.26715 1.53474 3.43742 2.23753 2.73525C2.93713 2.034 3.76821 1.47767 4.68316 1.09812C5.61866 0.695399 6.62742 0.490728 7.64591 0.497C8.70903 0.497 9.69691 0.69825 10.6087 1.09812C11.5232 1.47749 12.354 2.03352 13.0534 2.73438C13.7544 3.43404 14.3104 4.26511 14.6897 5.18C15.0913 6.09175 15.2917 7.07875 15.2917 8.14275C15.2917 9.19275 15.0904 10.1806 14.6905 11.1055C14.3112 12.0204 13.7552 12.8514 13.0543 13.5511C12.3519 14.254 11.5218 14.8165 10.6087 15.2084C9.69691 15.5951 8.70991 15.7885 7.64591 15.7885ZM7.64591 13.965C8.43341 13.965 9.17191 13.8127 9.86316 13.51C10.5514 13.2166 11.1772 12.7943 11.7068 12.2657C12.2429 11.7307 12.6718 11.0981 12.9703 10.402C13.2763 9.68837 13.4315 8.9192 13.4262 8.14275C13.4324 7.37508 13.2833 6.61408 12.9878 5.90553C12.6924 5.19697 12.2566 4.55552 11.7068 4.01975C11.1771 3.49185 10.5513 3.07011 9.86316 2.77725C9.16426 2.47127 8.40883 2.31566 7.64591 2.3205C6.85841 2.3205 6.11203 2.47275 5.40766 2.77638C4.72339 3.07628 4.09884 3.49719 3.56403 4.01887C3.03903 4.54387 2.62428 5.159 2.32153 5.86338C2.01409 6.58365 1.8586 7.35963 1.86478 8.14275C1.86478 8.94425 2.01703 9.69675 2.32066 10.4011C2.61659 11.0938 3.03781 11.7259 3.56316 12.2657C4.0979 12.7884 4.7228 13.2099 5.40766 13.51C6.11441 13.8144 6.8764 13.9696 7.64591 13.9659V13.965ZM7.72816 12.39C6.92753 12.39 6.21616 12.2106 5.59403 11.8519C4.97758 11.4974 4.46937 10.9816 4.12403 10.36C3.77841 9.71075 3.60516 8.96437 3.60516 8.12175C3.60516 7.29312 3.77841 6.56162 4.12316 5.9255C4.46891 5.30389 4.97739 4.78816 5.59403 4.43362C6.21528 4.07487 6.92753 3.8955 7.72903 3.8955C8.43341 3.8955 9.06166 4.03375 9.61378 4.30938C10.1545 4.57502 10.6183 4.9744 10.9613 5.46962C11.3105 5.96424 11.5181 6.54483 11.5615 7.14875L9.53153 7.252C9.46153 6.755 9.26203 6.35425 8.93041 6.04975C8.61278 5.74613 8.21203 5.59475 7.72816 5.59475C7.31428 5.59475 6.94853 5.698 6.63003 5.90538C6.31241 6.11275 6.06391 6.40938 5.88453 6.79613C5.71828 7.16888 5.63603 7.61075 5.63603 8.12175C5.63603 8.64675 5.71916 9.10263 5.88453 9.48938C6.06391 9.863 6.31328 10.1596 6.63003 10.381C6.94853 10.5875 7.31428 10.6916 7.72816 10.6916C8.06066 10.6916 8.35728 10.6216 8.61978 10.4843C8.89021 10.3374 9.11831 10.1235 9.28216 9.863C9.44841 9.6005 9.55166 9.282 9.59366 8.90925L11.6237 9.01337C11.5769 9.63883 11.3623 10.2401 11.0024 10.7537C10.657 11.2648 10.1861 11.6784 9.63478 11.9551C9.06866 12.2456 8.43341 12.3909 7.72816 12.3909V12.39Z" fill="var(--fill-0, black)"/>
</g>
<defs>
<clipPath id="clip0_0_61">
<rect width="69.125" height="21" fill="white"/>
</clipPath>
</defs>
</svg>
