<svg preserveAspectRatio="none" width="100%" height="100%" overflow="visible" style="display: block;" viewBox="0 0 130.422 128.992" fill="none" xmlns="http://www.w3.org/2000/svg">
<path id="Path 2" d="M91.4082 3.69244C91.4082 22.9778 107.236 38.5775 126.715 38.6046C127.957 38.554 129.195 38.4261 130.422 38.2218V41.8872C129.185 42.0125 127.976 42.2666 126.715 42.2666C105.177 42.2666 87.7014 24.99 87.6775 3.66534C87.6775 2.41872 87.9344 1.22291 88.0612 0H91.7679C91.5863 1.21952 91.4596 2.44243 91.3808 3.66534L91.4082 3.68905V3.69244ZM10.1371 3.69244C10.2158 67.3311 62.3777 118.886 126.715 118.964C127.976 118.964 129.185 118.812 130.422 118.785V128.812C129.185 128.839 127.952 128.992 126.715 128.992C56.7696 128.914 0.0753684 72.8529 0 3.68905C0 2.44243 0.154169 1.25001 0.17815 0.0271005H10.3187C10.2673 1.24662 10.1371 2.46614 10.1371 3.68905V3.69244Z" fill="var(--fill-0, #E1FCAD)"/>
</svg>
